<?xml version="1.0" encoding="UTF-8" ?>
<!DOCTYPE svg PUBLIC "-//W3C//DTD SVG 1.1//EN" "http://www.w3.org/Graphics/SVG/1.1/DTD/svg11.dtd">
<svg width="187pt" height="246pt" viewBox="0 0 187 246" version="1.1" xmlns="http://www.w3.org/2000/svg">
<g id="#ef5a5aff">
<path fill="#ef5a5a" opacity="1.00" d=" M 68.77 6.67 C 88.03 -4.34 114.66 -1.20 130.06 15.03 C 138.24 22.34 142.98 32.82 144.97 43.47 C 142.63 45.52 140.81 48.39 137.97 49.77 C 134.52 47.76 132.04 44.29 129.15 41.53 C 130.49 38.17 131.81 34.70 131.89 31.04 C 131.20 27.50 128.77 24.66 126.59 21.92 C 124.90 25.30 124.15 29.03 123.43 32.71 C 124.02 33.47 124.60 34.23 125.18 35.01 C 124.68 35.16 123.68 35.47 123.18 35.63 C 119.83 31.92 115.52 29.01 113.05 24.58 C 114.37 25.38 115.73 26.12 117.08 26.87 C 118.11 23.40 119.50 19.95 119.66 16.30 C 116.96 12.87 112.82 10.96 109.02 9.01 C 107.19 8.34 105.29 7.01 103.29 7.34 C 102.20 9.25 101.88 11.45 101.33 13.55 C 99.92 12.29 98.53 11.03 97.14 9.76 C 98.46 8.17 99.75 6.55 100.94 4.86 C 98.82 5.58 96.82 6.63 94.94 7.83 C 93.43 6.72 91.84 5.70 90.16 4.86 C 91.11 6.50 92.65 7.92 93.00 9.84 C 91.11 13.20 87.75 15.36 85.23 18.21 C 83.93 19.30 82.91 21.12 81.25 21.58 C 77.89 18.66 74.98 15.26 71.67 12.28 C 69.97 10.87 69.34 8.72 68.77 6.67 Z" />
<path fill="#ef5a5a" opacity="1.00" d=" M 59.64 18.10 C 62.41 16.50 64.45 14.00 66.98 12.10 C 69.72 13.51 71.49 16.21 73.74 18.26 C 75.43 20.15 77.76 21.64 78.84 23.98 C 76.81 27.43 73.36 29.80 70.74 32.79 C 69.41 33.81 68.32 35.91 66.40 35.60 C 62.49 32.33 59.09 28.46 55.55 24.79 C 56.75 22.47 58.16 20.25 59.64 18.10 Z" />
<path fill="#ef5a5a" opacity="1.00" d=" M 83.12 23.66 C 86.87 19.51 90.91 15.62 95.02 11.82 C 97.09 13.39 98.86 15.31 100.31 17.46 C 101.03 18.06 101.82 18.58 102.61 19.09 C 104.33 20.54 105.75 22.29 107.15 24.04 C 103.46 28.21 99.49 32.16 95.33 35.88 C 91.30 31.76 87.21 27.71 83.12 23.66 Z" />
<path fill="#ef5a5a" opacity="1.00" d=" M 68.90 38.05 C 72.62 33.71 76.68 29.63 80.99 25.88 C 85.36 29.61 89.39 33.77 93.18 38.08 C 90.18 41.44 86.85 44.47 83.78 47.77 C 82.75 48.75 81.26 50.69 79.81 49.15 C 76.05 45.59 72.33 41.94 68.90 38.05 Z" />
<path fill="#ef5a5a" opacity="1.00" d=" M 50.71 49.30 C 50.17 41.68 51.24 33.83 54.52 26.89 C 57.66 30.82 62.19 33.69 64.77 37.99 C 63.28 40.92 60.38 42.79 58.24 45.22 C 56.09 47.13 54.10 50.80 50.71 49.30 Z" />
<path fill="#ef5a5a" opacity="1.00" d=" M 54.83 52.04 C 58.67 47.78 62.67 43.63 67.02 39.88 C 71.03 43.79 75.65 47.39 78.82 51.98 C 75.62 56.56 71.03 60.31 66.95 64.21 C 62.81 60.27 58.66 56.29 54.83 52.04 Z" />
<path fill="#ef5a5a" opacity="1.00" d=" M 83.80 50.80 C 87.41 47.05 91.09 43.34 94.98 39.87 C 99.29 43.68 103.44 47.71 107.21 52.06 C 103.31 56.26 99.33 60.42 94.99 64.16 C 91.16 60.95 87.89 57.15 84.27 53.71 C 83.32 53.07 82.76 51.66 83.80 50.80 Z" />
<path fill="#ef5a5a" opacity="1.00" d=" M 123.35 40.16 C 127.74 44.04 131.91 48.20 135.79 52.59 C 131.85 56.31 128.41 60.77 124.00 63.86 C 119.52 60.97 116.27 56.31 112.25 52.75 L 112.76 52.29 C 114.24 51.10 115.20 49.46 116.11 47.83 C 118.09 44.90 120.94 42.72 123.35 40.16 Z" />
<path fill="#ef5a5a" opacity="1.00" d=" M 51.18 55.86 C 51.99 55.30 53.16 53.52 54.16 54.76 C 57.91 58.43 61.74 62.04 65.19 66.00 C 62.98 68.62 60.54 71.03 57.99 73.32 C 54.50 68.05 52.62 61.95 51.18 55.86 Z" />
<path fill="#ef5a5a" opacity="1.00" d=" M 70.72 63.82 C 74.22 60.55 77.33 56.86 81.08 53.86 C 85.27 57.75 89.36 61.76 93.18 66.02 C 89.81 70.02 85.91 73.53 82.21 77.21 C 80.78 78.87 79.27 76.67 78.24 75.73 C 75.44 72.55 72.03 69.93 69.41 66.61 C 68.61 65.49 70.16 64.61 70.72 63.82 Z" />
<path fill="#ef5a5a" opacity="1.00" d=" M 97.15 66.64 C 101.04 62.24 105.28 58.12 109.63 54.19 C 113.72 58.26 117.81 62.33 121.89 66.41 C 118.60 69.95 115.11 73.30 111.71 76.73 C 110.81 77.91 108.86 78.35 107.77 77.19 C 104.16 73.75 100.79 70.06 97.15 66.64 Z" />
<path fill="#ef5a5a" opacity="1.00" d=" M 126.02 65.98 C 129.40 61.63 133.62 57.95 137.64 54.19 C 139.89 56.55 142.26 58.79 144.78 60.86 C 143.71 67.40 141.18 73.59 137.76 79.23 C 134.84 73.96 129.27 70.96 126.02 65.98 Z" />
<path fill="#ef5a5a" opacity="1.00" d=" M 59.65 75.85 C 61.45 72.61 64.21 70.11 67.06 67.81 C 71.25 71.70 75.33 75.72 79.18 79.95 C 76.81 82.77 74.18 85.33 71.66 88.01 C 66.87 84.82 62.89 80.58 59.65 75.85 Z" />
<path fill="#ef5a5a" opacity="1.00" d=" M 83.14 80.36 C 87.38 76.36 91.16 71.86 95.69 68.18 C 99.10 71.83 102.78 75.21 106.21 78.83 C 108.14 80.76 105.58 82.89 104.24 84.23 C 101.37 86.71 99.12 89.96 95.88 91.97 C 94.09 91.95 92.99 90.37 91.79 89.28 C 88.96 86.26 85.88 83.47 83.14 80.36 Z" />
<path fill="#ef5a5a" opacity="1.00" d=" M 111.11 80.67 C 115.05 76.27 119.21 72.06 123.68 68.20 C 128.00 72.53 132.37 76.82 136.53 81.31 C 133.24 84.96 130.62 89.25 126.44 92.04 C 124.51 91.65 122.18 91.85 120.76 90.24 C 117.52 87.07 114.46 83.73 111.11 80.67 Z" />
<path fill="#ef5a5a" opacity="1.00" d=" M 81.35 82.19 C 85.11 85.58 88.81 89.09 92.19 92.85 C 93.57 94.08 92.28 95.81 92.10 97.25 C 85.60 95.80 79.32 93.27 73.81 89.50 C 76.39 87.13 78.89 84.68 81.35 82.19 Z" />
<path fill="#ef5a5a" opacity="1.00" d=" M 109.38 82.15 C 113.90 86.26 118.18 90.62 122.31 95.11 C 121.45 95.66 120.56 96.19 119.67 96.69 C 117.44 96.37 115.19 96.34 113.04 97.07 C 108.88 98.29 104.52 98.23 100.23 98.10 C 99.25 96.91 98.25 95.73 97.26 94.55 C 101.02 90.15 105.38 86.33 109.38 82.15 Z" />
</g>
<g id="#e45959ff">
<path fill="#e45959" opacity="1.00" d=" M 90.16 4.86 C 91.84 5.70 93.43 6.72 94.94 7.83 C 96.82 6.63 98.82 5.58 100.94 4.86 C 99.75 6.55 98.46 8.17 97.14 9.76 C 98.53 11.03 99.92 12.29 101.33 13.55 C 101.01 14.86 100.65 16.16 100.31 17.46 C 98.86 15.31 97.09 13.39 95.02 11.82 C 90.91 15.62 86.87 19.51 83.12 23.66 C 87.21 27.71 91.30 31.76 95.33 35.88 C 99.49 32.16 103.46 28.21 107.15 24.04 C 105.75 22.29 104.33 20.54 102.61 19.09 C 106.55 19.81 110.10 21.93 113.05 24.58 C 115.52 29.01 119.83 31.92 123.18 35.63 C 123.68 35.47 124.68 35.16 125.18 35.01 C 126.57 37.14 127.72 39.42 129.15 41.53 C 132.04 44.29 134.52 47.76 137.97 49.77 C 140.81 48.39 142.63 45.52 144.97 43.47 C 145.99 49.19 145.97 55.17 144.78 60.86 C 142.26 58.79 139.89 56.55 137.64 54.19 C 133.62 57.95 129.40 61.63 126.02 65.98 C 129.27 70.96 134.84 73.96 137.76 79.23 C 137.45 79.75 136.84 80.79 136.53 81.31 C 132.37 76.82 128.00 72.53 123.68 68.20 C 119.21 72.06 115.05 76.27 111.11 80.67 C 114.46 83.73 117.52 87.07 120.76 90.24 C 122.18 91.85 124.51 91.65 126.44 92.04 C 125.08 93.09 123.74 94.15 122.31 95.11 C 118.18 90.62 113.90 86.26 109.38 82.15 C 105.38 86.33 101.02 90.15 97.26 94.55 C 98.25 95.73 99.25 96.91 100.23 98.10 C 97.50 98.03 94.77 97.86 92.10 97.25 C 92.28 95.81 93.57 94.08 92.19 92.85 C 88.81 89.09 85.11 85.58 81.35 82.19 C 78.89 84.68 76.39 87.13 73.81 89.50 C 73.28 89.13 72.20 88.38 71.66 88.01 C 74.18 85.33 76.81 82.77 79.18 79.95 C 75.33 75.72 71.25 71.70 67.06 67.81 C 64.21 70.11 61.45 72.61 59.65 75.85 C 59.08 75.01 58.53 74.17 57.99 73.32 C 60.54 71.03 62.98 68.62 65.19 66.00 C 61.74 62.04 57.91 58.43 54.16 54.76 C 53.16 53.52 51.99 55.30 51.18 55.86 C 51.00 53.67 50.88 51.48 50.71 49.30 C 54.10 50.80 56.09 47.13 58.24 45.22 C 60.38 42.79 63.28 40.92 64.77 37.99 C 62.19 33.69 57.66 30.82 54.52 26.89 C 54.78 26.36 55.29 25.32 55.55 24.79 C 59.09 28.46 62.49 32.33 66.40 35.60 C 68.32 35.91 69.41 33.81 70.74 32.79 C 73.36 29.80 76.81 27.43 78.84 23.98 C 77.76 21.64 75.43 20.15 73.74 18.26 C 71.49 16.21 69.72 13.51 66.98 12.10 C 64.45 14.00 62.41 16.50 59.64 18.10 C 61.11 14.48 65.18 12.48 65.81 8.50 C 66.78 7.87 67.76 7.26 68.77 6.67 C 69.34 8.72 69.97 10.87 71.67 12.28 C 74.98 15.26 77.89 18.66 81.25 21.58 C 82.91 21.12 83.93 19.30 85.23 18.21 C 87.75 15.36 91.11 13.20 93.00 9.84 C 92.65 7.92 91.11 6.50 90.16 4.86 M 68.90 38.05 C 72.33 41.94 76.05 45.59 79.81 49.15 C 81.26 50.69 82.75 48.75 83.78 47.77 C 86.85 44.47 90.18 41.44 93.18 38.08 C 89.39 33.77 85.36 29.61 80.99 25.88 C 76.68 29.63 72.62 33.71 68.90 38.05 M 103.69 32.66 C 101.13 34.41 101.83 37.83 102.56 40.35 C 103.89 45.70 108.44 49.30 112.76 52.29 L 112.25 52.75 C 116.27 56.31 119.52 60.97 124.00 63.86 C 128.41 60.77 131.85 56.31 135.79 52.59 C 131.91 48.20 127.74 44.04 123.35 40.16 C 120.94 42.72 118.09 44.90 116.11 47.83 C 114.88 42.75 113.30 37.29 109.03 33.86 C 107.49 32.87 105.42 30.95 103.69 32.66 M 54.83 52.04 C 58.66 56.29 62.81 60.27 66.95 64.21 C 71.03 60.31 75.62 56.56 78.82 51.98 C 75.65 47.39 71.03 43.79 67.02 39.88 C 62.67 43.63 58.67 47.78 54.83 52.04 M 83.80 50.80 C 82.76 51.66 83.32 53.07 84.27 53.71 C 87.89 57.15 91.16 60.95 94.99 64.16 C 99.33 60.42 103.31 56.26 107.21 52.06 C 103.44 47.71 99.29 43.68 94.98 39.87 C 91.09 43.34 87.41 47.05 83.80 50.80 M 70.72 63.82 C 70.16 64.61 68.61 65.49 69.41 66.61 C 72.03 69.93 75.44 72.55 78.24 75.73 C 79.27 76.67 80.78 78.87 82.21 77.21 C 85.91 73.53 89.81 70.02 93.18 66.02 C 89.36 61.76 85.27 57.75 81.08 53.86 C 77.33 56.86 74.22 60.55 70.72 63.82 M 97.15 66.64 C 100.79 70.06 104.16 73.75 107.77 77.19 C 108.86 78.35 110.81 77.91 111.71 76.73 C 115.11 73.30 118.60 69.95 121.89 66.41 C 117.81 62.33 113.72 58.26 109.63 54.19 C 105.28 58.12 101.04 62.24 97.15 66.64 M 83.14 80.36 C 85.88 83.47 88.96 86.26 91.79 89.28 C 92.99 90.37 94.09 91.95 95.88 91.97 C 99.12 89.96 101.37 86.71 104.24 84.23 C 105.58 82.89 108.14 80.76 106.21 78.83 C 102.78 75.21 99.10 71.83 95.69 68.18 C 91.16 71.86 87.38 76.36 83.14 80.36 Z" />
</g>
<g id="#f06a6aff">
<path fill="#f06a6a" opacity="1.00" d=" M 103.29 7.34 C 105.29 7.01 107.19 8.34 109.02 9.01 C 112.82 10.96 116.96 12.87 119.66 16.30 C 119.50 19.95 118.11 23.40 117.08 26.87 C 115.73 26.12 114.37 25.38 113.05 24.58 C 110.10 21.93 106.55 19.81 102.61 19.09 C 101.82 18.58 101.03 18.06 100.31 17.46 C 100.65 16.16 101.01 14.86 101.33 13.55 C 101.88 11.45 102.20 9.25 103.29 7.34 Z" />
<path fill="#f06a6a" opacity="1.00" d=" M 123.43 32.71 C 124.15 29.03 124.90 25.30 126.59 21.92 C 128.77 24.66 131.20 27.50 131.89 31.04 C 131.81 34.70 130.49 38.17 129.15 41.53 C 127.72 39.42 126.57 37.14 125.18 35.01 C 124.60 34.23 124.02 33.47 123.43 32.71 Z" />
<path fill="#f06a6a" opacity="1.00" d=" M 103.69 32.66 C 105.42 30.95 107.49 32.87 109.03 33.86 C 113.30 37.29 114.88 42.75 116.11 47.83 C 115.20 49.46 114.24 51.10 112.76 52.29 C 108.44 49.30 103.89 45.70 102.56 40.35 C 101.83 37.83 101.13 34.41 103.69 32.66 Z" />
</g>
<g id="#dc454dff">
<path fill="#dc454d" opacity="1.00" d=" M 43.91 39.06 C 46.92 26.57 55.05 15.47 65.81 8.50 C 65.18 12.48 61.11 14.48 59.64 18.10 C 58.16 20.25 56.75 22.47 55.55 24.79 C 55.29 25.32 54.78 26.36 54.52 26.89 C 51.24 33.83 50.17 41.68 50.71 49.30 C 50.88 51.48 51.00 53.67 51.18 55.86 C 52.62 61.95 54.50 68.05 57.99 73.32 C 58.53 74.17 59.08 75.01 59.65 75.85 C 62.89 80.58 66.87 84.82 71.66 88.01 C 72.20 88.38 73.28 89.13 73.81 89.50 C 79.32 93.27 85.60 95.80 92.10 97.25 C 94.77 97.86 97.50 98.03 100.23 98.10 C 104.52 98.23 108.88 98.29 113.04 97.07 C 115.19 96.34 117.44 96.37 119.67 96.69 C 115.01 99.49 109.85 101.39 104.56 102.56 C 98.48 103.76 92.23 103.84 86.10 102.98 C 85.45 102.86 84.16 102.61 83.51 102.49 C 70.08 99.58 57.70 91.41 50.46 79.64 C 42.71 67.84 40.37 52.70 43.91 39.06 Z" />
</g>
<g id="#4d4b4bff">
<path fill="#4d4b4b" opacity="1.00" d=" M 83.39 122.29 C 83.56 115.69 83.26 109.09 83.51 102.49 C 84.16 102.61 85.45 102.86 86.10 102.98 C 86.60 119.31 86.20 135.66 86.26 152.00 C 86.47 155.03 85.40 158.78 87.86 161.16 C 91.59 164.25 96.76 163.94 101.31 163.89 L 101.17 165.15 C 95.66 167.28 88.54 167.34 84.02 163.04 C 83.89 162.72 83.64 162.09 83.52 161.77 C 82.95 155.13 83.45 148.46 83.25 141.81 C 83.26 141.38 83.26 140.52 83.26 140.09 C 83.23 136.07 83.22 132.05 83.24 128.03 C 83.27 126.11 83.33 124.20 83.39 122.29 Z" />
</g>
<g id="#686868ff">
<path fill="#686868" opacity="1.00" d=" M 86.10 102.98 C 92.23 103.84 98.48 103.76 104.56 102.56 C 103.58 109.29 103.71 116.23 104.58 122.97 C 104.64 124.64 104.76 126.31 104.92 127.97 C 107.26 130.50 110.72 131.57 113.58 133.40 C 134.78 145.77 156.42 157.39 177.48 170.00 C 173.58 173.16 168.95 175.16 164.71 177.77 C 141.85 191.32 118.80 204.50 95.90 217.98 C 95.02 218.77 93.99 218.50 93.09 217.93 C 69.18 204.18 45.25 190.47 21.40 176.62 C 17.72 174.47 13.87 172.61 10.48 170.01 C 19.31 164.60 28.37 159.56 37.28 154.26 C 52.75 145.77 67.80 136.56 83.24 128.03 C 83.22 132.05 83.23 136.07 83.26 140.09 C 74.19 141.81 64.92 144.63 57.94 150.96 C 53.97 154.53 51.04 159.69 51.64 165.19 C 51.66 165.76 51.71 166.90 51.73 167.47 C 50.29 174.68 54.88 181.45 60.58 185.41 C 72.82 194.01 88.51 195.54 103.02 194.13 C 112.75 192.84 122.68 189.73 130.09 183.04 C 134.30 179.21 137.49 173.41 136.20 167.59 C 136.86 162.84 136.09 157.81 132.91 154.06 C 126.20 145.77 115.50 142.05 105.32 140.26 C 105.19 140.66 104.94 141.47 104.81 141.87 C 104.64 147.50 104.75 153.14 104.79 158.77 C 105.22 161.54 103.63 163.99 101.17 165.15 L 101.31 163.89 C 96.76 163.94 91.59 164.25 87.86 161.16 C 85.40 158.78 86.47 155.03 86.26 152.00 C 86.20 135.66 86.60 119.31 86.10 102.98 M 146.05 162.05 C 144.57 164.91 141.88 167.38 142.09 170.85 C 142.17 172.49 142.00 174.42 143.45 175.58 C 146.52 178.34 151.08 178.72 155.00 178.01 C 158.16 177.40 162.10 175.39 161.58 171.55 C 162.04 167.90 159.43 165.17 157.78 162.19 C 154.48 159.68 149.44 159.76 146.05 162.05 Z" />
</g>
<g id="#909191fe">
<path fill="#909191" opacity="1.00" d=" M 19.16 159.26 C 40.56 146.92 61.98 134.61 83.39 122.29 C 83.33 124.20 83.27 126.11 83.24 128.03 C 67.80 136.56 52.75 145.77 37.28 154.26 C 28.37 159.56 19.31 164.60 10.48 170.01 C 13.87 172.61 17.72 174.47 21.40 176.62 C 45.25 190.47 69.18 204.18 93.09 217.93 C 93.99 218.50 95.02 218.77 95.90 217.98 C 118.80 204.50 141.85 191.32 164.71 177.77 C 168.95 175.16 173.58 173.16 177.48 170.00 C 156.42 157.39 134.78 145.77 113.58 133.40 C 110.72 131.57 107.26 130.50 104.92 127.97 C 104.76 126.31 104.64 124.64 104.58 122.97 C 108.03 124.62 111.20 126.77 114.48 128.71 C 134.36 139.57 153.85 151.26 173.75 162.15 C 175.10 162.79 175.75 164.42 177.20 164.85 C 180.83 165.67 183.60 168.31 187.00 169.68 L 187.00 170.50 C 156.20 188.41 125.42 206.36 94.64 224.29 C 66.65 208.32 38.77 192.16 10.83 176.10 C 7.35 174.05 3.91 171.90 0.18 170.31 C 3.57 168.34 6.82 166.07 10.51 164.68 C 13.15 162.50 16.23 160.99 19.16 159.26 Z" />
</g>
<g id="#bebebeff">
<path fill="#bebebe" opacity="1.00" d=" M 57.94 150.96 C 64.92 144.63 74.19 141.81 83.26 140.09 C 83.26 140.52 83.26 141.38 83.25 141.81 C 77.35 143.08 71.85 146.00 68.24 150.96 C 72.31 155.33 76.51 159.59 80.92 163.62 C 81.57 163.16 82.87 162.23 83.52 161.77 C 83.64 162.09 83.89 162.72 84.02 163.04 C 83.67 163.57 82.97 164.62 82.61 165.15 C 85.94 169.85 91.38 172.72 94.19 177.77 C 93.80 177.76 93.02 177.75 92.63 177.74 C 88.87 173.86 85.10 169.97 81.08 166.35 C 78.49 168.54 75.73 170.72 74.35 173.92 C 73.54 173.55 72.75 173.14 71.98 172.71 C 74.76 170.32 77.42 167.78 79.77 164.95 C 75.75 160.51 71.44 156.34 67.06 152.26 C 65.68 153.46 64.29 154.65 63.02 155.96 C 62.94 155.48 62.78 154.51 62.70 154.02 C 58.79 157.51 55.11 161.26 51.64 165.19 C 51.04 159.69 53.97 154.53 57.94 150.96 Z" />
<path fill="#bebebe" opacity="1.00" d=" M 54.85 165.00 C 56.93 162.29 59.51 160.06 62.03 157.78 C 62.22 159.08 62.40 160.38 62.54 161.69 C 61.13 167.56 64.08 173.23 68.66 176.78 C 67.31 176.41 65.70 176.46 64.75 175.26 C 61.42 171.87 57.99 168.56 54.85 165.00 Z" />
</g>
<g id="#bdbdbdff">
<path fill="#bdbdbd" opacity="1.00" d=" M 105.32 140.26 C 115.50 142.05 126.20 145.77 132.91 154.06 C 136.09 157.81 136.86 162.84 136.20 167.59 C 133.13 176.88 124.05 182.29 115.26 185.22 C 101.69 189.62 86.68 189.69 73.08 185.34 C 73.00 182.18 68.15 180.54 69.81 177.44 C 79.27 183.57 91.14 184.82 102.11 183.32 C 110.23 181.96 119.00 178.95 123.81 171.82 C 125.92 168.85 125.78 165.12 125.59 161.66 C 125.79 158.54 125.62 155.24 123.46 152.77 C 122.77 151.89 122.07 151.03 121.33 150.19 C 116.95 145.62 110.81 143.41 104.81 141.87 C 104.94 141.47 105.19 140.66 105.32 140.26 Z" />
<path fill="#bdbdbd" opacity="1.00" d=" M 53.26 166.97 C 56.99 170.51 60.75 174.05 64.22 177.85 C 65.32 178.87 64.38 180.35 64.28 181.55 C 59.29 178.68 54.60 174.69 52.47 169.20 C 52.67 168.64 53.06 167.53 53.26 166.97 Z" />
</g>
<g id="#e8e8e8ff">
<path fill="#e8e8e8" opacity="1.00" d=" M 68.24 150.96 C 71.85 146.00 77.35 143.08 83.25 141.81 C 83.45 148.46 82.95 155.13 83.52 161.77 C 82.87 162.23 81.57 163.16 80.92 163.62 C 76.51 159.59 72.31 155.33 68.24 150.96 Z" />
<path fill="#e8e8e8" opacity="1.00" d=" M 104.81 141.87 C 110.81 143.41 116.95 145.62 121.33 150.19 C 118.24 155.10 113.61 158.80 109.43 162.74 C 107.91 161.39 106.36 160.06 104.79 158.77 C 104.75 153.14 104.64 147.50 104.81 141.87 Z" />
<path fill="#e8e8e8" opacity="1.00" d=" M 63.02 155.96 C 64.29 154.65 65.68 153.46 67.06 152.26 C 71.44 156.34 75.75 160.51 79.77 164.95 C 77.42 167.78 74.76 170.32 71.98 172.71 C 67.76 170.20 63.70 166.69 62.54 161.69 C 62.40 160.38 62.22 159.08 62.03 157.78 C 62.28 157.33 62.77 156.42 63.02 155.96 Z" />
<path fill="#e8e8e8" opacity="1.00" d=" M 123.46 152.77 C 125.62 155.24 125.79 158.54 125.59 161.66 C 124.39 165.74 121.57 169.08 118.06 171.41 C 115.97 169.40 113.53 167.62 112.12 165.03 C 115.13 160.33 120.08 157.22 123.46 152.77 Z" />
<path fill="#e8e8e8" opacity="1.00" d=" M 74.35 173.92 C 75.73 170.72 78.49 168.54 81.08 166.35 C 85.10 169.97 88.87 173.86 92.63 177.74 C 86.36 177.64 80.14 176.31 74.35 173.92 Z" />
</g>
<g id="#e7e7e7ff">
<path fill="#e7e7e7" opacity="1.00" d=" M 121.33 150.19 C 122.07 151.03 122.77 151.89 123.46 152.77 C 120.08 157.22 115.13 160.33 112.12 165.03 C 113.53 167.62 115.97 169.40 118.06 171.41 C 110.99 175.94 102.50 177.70 94.19 177.77 C 91.38 172.72 85.94 169.85 82.61 165.15 C 82.97 164.62 83.67 163.57 84.02 163.04 C 88.54 167.34 95.66 167.28 101.17 165.15 C 103.63 163.99 105.22 161.54 104.79 158.77 C 106.36 160.06 107.91 161.39 109.43 162.74 C 113.61 158.80 118.24 155.10 121.33 150.19 Z" />
</g>
<g id="#b2b2b2ff">
<path fill="#b2b2b2" opacity="1.00" d=" M 51.64 165.19 C 55.11 161.26 58.79 157.51 62.70 154.02 C 62.78 154.51 62.94 155.48 63.02 155.96 C 62.77 156.42 62.28 157.33 62.03 157.78 C 59.51 160.06 56.93 162.29 54.85 165.00 C 57.99 168.56 61.42 171.87 64.75 175.26 C 65.70 176.46 67.31 176.41 68.66 176.78 C 68.95 176.94 69.52 177.27 69.81 177.44 C 68.15 180.54 73.00 182.18 73.08 185.34 C 70.02 184.39 67.05 183.15 64.28 181.55 C 64.38 180.35 65.32 178.87 64.22 177.85 C 60.75 174.05 56.99 170.51 53.26 166.97 C 53.06 167.53 52.67 168.64 52.47 169.20 C 52.28 168.76 51.91 167.90 51.73 167.47 C 51.71 166.90 51.66 165.76 51.64 165.19 Z" />
</g>
<g id="#ee5a5aff">
<path fill="#ee5a5a" opacity="1.00" d=" M 146.05 162.05 C 149.44 159.76 154.48 159.68 157.78 162.19 C 159.43 165.17 162.04 167.90 161.58 171.55 C 158.26 173.06 154.85 175.06 151.06 174.69 C 147.66 174.67 144.74 172.77 142.09 170.85 C 141.88 167.38 144.57 164.91 146.05 162.05 M 144.84 166.15 C 144.54 168.05 144.79 170.62 147.02 171.19 C 151.21 173.25 159.04 172.52 159.16 166.59 C 156.49 167.31 153.95 168.85 151.10 168.60 C 148.77 168.58 146.78 167.26 144.84 166.15 Z" />
</g>
<g id="#3d3d3dff">
<path fill="#3d3d3d" opacity="1.00" d=" M 68.66 176.78 C 64.08 173.23 61.13 167.56 62.54 161.69 C 63.70 166.69 67.76 170.20 71.98 172.71 C 72.75 173.14 73.54 173.55 74.35 173.92 C 80.14 176.31 86.36 177.64 92.63 177.74 C 93.02 177.75 93.80 177.76 94.19 177.77 C 102.50 177.70 110.99 175.94 118.06 171.41 C 121.57 169.08 124.39 165.74 125.59 161.66 C 125.78 165.12 125.92 168.85 123.81 171.82 C 119.00 178.95 110.23 181.96 102.11 183.32 C 91.14 184.82 79.27 183.57 69.81 177.44 C 69.52 177.27 68.95 176.94 68.66 176.78 Z" />
<path fill="#3d3d3d" opacity="1.00" d=" M 60.58 185.41 C 54.88 181.45 50.29 174.68 51.73 167.47 C 51.91 167.90 52.28 168.76 52.47 169.20 C 54.60 174.69 59.29 178.68 64.28 181.55 C 67.05 183.15 70.02 184.39 73.08 185.34 C 86.68 189.69 101.69 189.62 115.26 185.22 C 124.05 182.29 133.13 176.88 136.20 167.59 C 137.49 173.41 134.30 179.21 130.09 183.04 C 122.68 189.73 112.75 192.84 103.02 194.13 C 88.51 195.54 72.82 194.01 60.58 185.41 Z" />
</g>
<g id="#bc2b3bff">
<path fill="#bc2b3b" opacity="1.00" d=" M 144.84 166.15 C 146.78 167.26 148.77 168.58 151.10 168.60 C 153.95 168.85 156.49 167.31 159.16 166.59 C 159.04 172.52 151.21 173.25 147.02 171.19 C 144.79 170.62 144.54 168.05 144.84 166.15 Z" />
</g>
<g id="#4f4d4dff">
<path fill="#4f4d4d" opacity="1.00" d=" M 0.18 170.31 C 3.91 171.90 7.35 174.05 10.83 176.10 C 38.77 192.16 66.65 208.32 94.64 224.29 C 94.70 231.41 94.15 238.56 95.03 245.64 L 95.05 246.00 L 94.86 246.00 C 66.71 231.24 38.70 216.21 10.59 201.37 C 7.04 191.04 3.96 180.55 0.18 170.31 Z" />
</g>
<g id="#b22e3dff">
<path fill="#b22e3d" opacity="1.00" d=" M 142.09 170.85 C 144.74 172.77 147.66 174.67 151.06 174.69 C 154.85 175.06 158.26 173.06 161.58 171.55 C 162.10 175.39 158.16 177.40 155.00 178.01 C 151.08 178.72 146.52 178.34 143.45 175.58 C 142.00 174.42 142.17 172.49 142.09 170.85 Z" />
</g>
<g id="#282828ff">
<path fill="#282828" opacity="1.00" d=" M 94.64 224.29 C 125.42 206.36 156.20 188.41 187.00 170.50 L 187.00 172.61 C 183.92 181.71 181.25 190.96 178.29 200.11 C 177.99 201.13 177.34 201.85 176.35 202.27 C 149.18 216.61 122.14 231.20 95.03 245.64 C 94.15 238.56 94.70 231.41 94.64 224.29 Z" />
</g>
</svg>
